<?xml version="1.0" encoding="UTF-8"?>
<!DOCTYPE svg PUBLIC "-//W3C//DTD SVG 1.1//EN" "http://www.w3.org/Graphics/SVG/1.1/DTD/svg11.dtd">
<svg xmlns="http://www.w3.org/2000/svg" xmlns:xlink="http://www.w3.org/1999/xlink" version="1.1" width="401px" height="341px" viewBox="-0.5 -0.5 401 341" style="background-color: rgb(255, 255, 255);"><defs><clipPath id="mx-clip-44-105-112-26-0"><rect x="44" y="105" width="112" height="26"/></clipPath><clipPath id="mx-clip-44-131-112-26-0"><rect x="44" y="131" width="112" height="26"/></clipPath><clipPath id="mx-clip-44-246-112-30-0"><rect x="44" y="246" width="112" height="30"/></clipPath></defs><g><path d="M 160 100 L 160 78 Q 160 60 142 60 L 58 60 Q 40 60 40 78 L 40 100" fill="#dae8fc" stroke="#6c8ebf" stroke-miterlimit="10" pointer-events="all"/><path d="M 40 100 L 40 162 Q 40 180 58 180 L 142 180 Q 160 180 160 162 L 160 100" fill="none" stroke="#6c8ebf" stroke-miterlimit="10" pointer-events="none"/><path d="M 40 100 L 160 100" fill="none" stroke="#6c8ebf" stroke-miterlimit="10" pointer-events="none"/><g fill="rgb(0, 0, 0)" font-family="Helvetica" font-style="italic" pointer-events="none" text-anchor="middle" font-size="12px"><text x="99.5" y="77.5">&lt;&lt; Interface &gt;&gt;</text><text x="99.5" y="91.5">Creator</text></g><g fill="rgb(0, 0, 0)" font-family="Helvetica" pointer-events="none" clip-path="url(#mx-clip-44-105-112-26-0)" font-size="12px"><text x="45.5" y="117.5">factoryMethod()</text></g><g fill="rgb(0, 0, 0)" font-family="Helvetica" pointer-events="none" clip-path="url(#mx-clip-44-131-112-26-0)" font-size="12px"><text x="45.5" y="143.5">anOperation()</text></g><path d="M 160 246 L 160 231.7 Q 160 220 148.3 220 L 51.7 220 Q 40 220 40 231.7 L 40 246" fill="#dae8fc" stroke="#6c8ebf" stroke-miterlimit="10" pointer-events="none"/><path d="M 40 246 L 40 288.3 Q 40 300 51.7 300 L 148.3 300 Q 160 300 160 288.3 L 160 246" fill="none" stroke="#6c8ebf" stroke-miterlimit="10" pointer-events="none"/><path d="M 40 246 L 160 246" fill="none" stroke="#6c8ebf" stroke-miterlimit="10" pointer-events="none"/><g fill="rgb(0, 0, 0)" font-family="Helvetica" pointer-events="none" text-anchor="middle" font-size="12px"><text x="99.5" y="237.5">ConcreteCreator</text></g><g fill="rgb(0, 0, 0)" font-family="Helvetica" pointer-events="none" clip-path="url(#mx-clip-44-246-112-30-0)" font-size="12px"><text x="45.5" y="265.5">factoryMethod()</text></g><path d="M 100 220 L 100 200 L 100 188.12" fill="none" stroke="rgb(0, 0, 0)" stroke-miterlimit="10" pointer-events="none"/><path d="M 100 181.12 L 103.5 188.12 L 96.5 188.12 Z" fill="rgb(0, 0, 0)" stroke="rgb(0, 0, 0)" stroke-miterlimit="10" pointer-events="none"/><path d="M 360 246 L 360 231.7 Q 360 220 348.3 220 L 251.7 220 Q 240 220 240 231.7 L 240 246" fill="#fff2cc" stroke="#d6b656" stroke-miterlimit="10" pointer-events="none"/><path d="M 240 246 L 240 288.3 Q 240 300 251.7 300 L 348.3 300 Q 360 300 360 288.3 L 360 246" fill="none" stroke="#d6b656" stroke-miterlimit="10" pointer-events="none"/><path d="M 240 246 L 360 246" fill="none" stroke="#d6b656" stroke-miterlimit="10" pointer-events="none"/><g fill="rgb(0, 0, 0)" font-family="Helvetica" pointer-events="none" text-anchor="middle" font-size="12px"><text x="299.5" y="237.5">ConcreteProduct</text></g><path d="M 300 220 L 300 200 L 300 188.12" fill="none" stroke="rgb(0, 0, 0)" stroke-miterlimit="10" pointer-events="none"/><path d="M 300 181.12 L 303.5 188.12 L 296.5 188.12 Z" fill="rgb(0, 0, 0)" stroke="rgb(0, 0, 0)" stroke-miterlimit="10" pointer-events="none"/><path d="M 360 100 L 360 78 Q 360 60 342 60 L 258 60 Q 240 60 240 78 L 240 100" fill="#fff2cc" stroke="#d6b656" stroke-miterlimit="10" pointer-events="none"/><path d="M 240 100 L 240 162 Q 240 180 258 180 L 342 180 Q 360 180 360 162 L 360 100" fill="none" stroke="#d6b656" stroke-miterlimit="10" pointer-events="none"/><path d="M 240 100 L 360 100" fill="none" stroke="#d6b656" stroke-miterlimit="10" pointer-events="none"/><g fill="rgb(0, 0, 0)" font-family="Helvetica" pointer-events="none" text-anchor="middle" font-size="12px"><text x="299.5" y="77.5">&lt;&lt; Interface &gt;&gt;</text><text x="299.5" y="91.5">Product</text></g><path d="M 160 260 L 200 260 L 231.88 260" fill="none" stroke="rgb(0, 0, 0)" stroke-miterlimit="10" stroke-dasharray="1 1" pointer-events="none"/><path d="M 238.88 260 L 231.88 263.5 L 231.88 256.5 Z" fill="none" stroke="rgb(0, 0, 0)" stroke-miterlimit="10" pointer-events="none"/><path d="M 400 23 L 400 10.35 Q 400 0 389.65 0 L 10.35 0 Q 0 0 0 10.35 L 0 23" fill="rgb(255, 255, 255)" stroke="none" pointer-events="none"/><g fill="rgb(0, 0, 0)" font-family="Helvetica" font-weight="bold" pointer-events="none" text-anchor="middle" font-size="12px"><text x="199.5" y="16">Factory Method Pattern</text></g></g></svg>