<?xml version="1.0" encoding="UTF-8"?>
<!DOCTYPE svg PUBLIC "-//W3C//DTD SVG 1.1//EN" "http://www.w3.org/Graphics/SVG/1.1/DTD/svg11.dtd">
<svg xmlns="http://www.w3.org/2000/svg" xmlns:xlink="http://www.w3.org/1999/xlink" version="1.1" width="721px" height="501px" viewBox="-0.5 -0.5 721 501" style="background-color: rgb(255, 255, 255);"><defs><linearGradient x1="0%" y1="0%" x2="0%" y2="100%" id="mx-gradient-ffffff-0.9-ffffff-0.1-s-0"><stop offset="0%" style="stop-color: rgb(255, 255, 255); stop-opacity: 0.9;"/><stop offset="100%" style="stop-color: rgb(255, 255, 255); stop-opacity: 0.1;"/></linearGradient><clipPath id="mx-clip-84-125-152-26-0"><rect x="84" y="125" width="152" height="26"/></clipPath><clipPath id="mx-clip-84-151-152-26-0"><rect x="84" y="151" width="152" height="26"/></clipPath><clipPath id="mx-clip-124-246-112-30-0"><rect x="124" y="246" width="112" height="30"/></clipPath><clipPath id="mx-clip-124-276-112-30-0"><rect x="124" y="276" width="112" height="30"/></clipPath><clipPath id="mx-clip-124-366-112-30-0"><rect x="124" y="366" width="112" height="30"/></clipPath><clipPath id="mx-clip-124-396-112-30-0"><rect x="124" y="396" width="112" height="30"/></clipPath></defs><g><path d="M 0 23 L 0 0 L 720 0 L 720 23" fill="rgb(255, 255, 255)" stroke="none" pointer-events="all"/><path d="M -1 -1 L -1 9.2 Q 360 16.1 721 9.2 L 721 -1 Z" fill="url(#mx-gradient-ffffff-0.9-ffffff-0.1-s-0)" stroke="none" pointer-events="none"/><g fill="rgb(0, 0, 0)" font-family="Helvetica" font-weight="bold" pointer-events="none" text-anchor="middle" font-size="12px"><text x="359.5" y="16">Absctract Factory Pattern</text></g><path d="M 280 60 C 280 60 280 60 280 60 M 280 60 C 280 60 280 60 280 60 M 279.74 66.4 C 280.74 64.05 282.81 63.03 284.99 60.36 M 279.74 66.4 C 281.15 65.5 282.19 64.09 284.99 60.36 M 280.13 72.04 C 283.68 69.2 288.88 63.11 290.63 59.97 M 280.13 72.04 C 281.86 69.95 284.71 66.62 290.63 59.97 M 279.87 78.44 C 282.73 71.36 289.93 67.06 295.62 60.33 M 279.87 78.44 C 285.61 72.25 291.47 64.42 295.62 60.33 M 280.27 84.08 C 286.99 76.22 296.52 68.68 301.26 59.93 M 280.27 84.08 C 285.78 79.31 289.69 73.3 301.26 59.93 M 280 90.48 C 288.31 80.93 300.21 67.36 306.25 60.29 M 280 90.48 C 289.31 78.11 300.8 66.34 306.25 60.29 M 279.74 96.88 C 289.65 87.65 298.93 74.6 311.89 59.9 M 279.74 96.88 C 287.24 87.54 297.04 77.03 311.89 59.9 M 280.14 102.52 C 292.25 87.56 304.01 76.4 316.88 60.26 M 280.14 102.52 C 288.54 91.98 296.3 84.05 316.88 60.26 M 279.88 108.92 C 295.65 92.12 310.99 76.25 322.52 59.86 M 279.88 108.92 C 290.48 96.42 301.12 82.55 322.52 59.86 M 280.27 114.56 C 296.44 99.38 310.32 80.96 327.51 60.22 M 280.27 114.56 C 295.45 97.25 309.6 82.15 327.51 60.22 M 280.01 120.96 C 291.09 110.69 300.44 97.57 333.15 59.83 M 280.01 120.96 C 290.69 107.64 303.21 94.35 333.15 59.83 M 279.75 127.36 C 300.72 104.91 320.59 82.25 338.14 60.19 M 279.75 127.36 C 302.96 100.68 324 76.71 338.14 60.19 M 280.14 133 C 293.49 118.62 306.3 104.35 343.78 59.79 M 280.14 133 C 291.87 118.91 304.1 103.72 343.78 59.79 M 279.88 139.4 C 292.65 124.72 310.51 105.29 348.77 60.15 M 279.88 139.4 C 303.39 110.6 329.09 82.51 348.77 60.15 M 282.9 142.02 C 297.84 123.11 311.9 107 354.41 59.76 M 282.9 142.02 C 306.28 115.7 327.95 89.66 354.41 59.76 M 287.89 142.38 C 305.92 120.93 324.06 97.11 359.4 60.12 M 287.89 142.38 C 310.17 115.83 333.7 87.59 359.4 60.12 M 293.53 141.99 C 320.87 112.23 344.09 80.59 365.04 59.72 M 293.53 141.99 C 318.61 111.77 345.15 81.47 365.04 59.72 M 298.52 142.35 C 320.84 117.59 341.54 94.39 370.03 60.08 M 298.52 142.35 C 321.83 116.15 344.59 89.6 370.03 60.08 M 304.16 141.95 C 324.1 117.9 346.91 96.77 375.67 59.69 M 304.16 141.95 C 329.6 111.78 355.96 82.36 375.67 59.69 M 309.15 142.31 C 327.11 120.55 341.95 104.6 380.66 60.05 M 309.15 142.31 C 332.95 114.36 355.48 88.84 380.66 60.05 M 314.13 142.67 C 335.45 119.59 360.71 93.54 386.3 59.66 M 314.13 142.67 C 331.28 123.06 347.47 104.45 386.3 59.66 M 319.78 142.28 C 336.12 125 353.07 103.5 391.29 60.02 M 319.78 142.28 C 339.18 117.79 360.33 93.6 391.29 60.02 M 324.76 142.64 C 343.43 121.76 359.21 102.75 396.27 60.38 M 324.76 142.64 C 347.07 118.19 367.4 92.98 396.27 60.38 M 330.41 142.24 C 347.69 122.25 362.17 106.17 401.92 59.98 M 330.41 142.24 C 356.2 114.42 379.52 86.71 401.92 59.98 M 335.39 142.6 C 366.05 109.01 391.96 76.63 406.91 60.34 M 335.39 142.6 C 348.84 125.06 364.81 107.43 406.91 60.34 M 341.04 142.21 C 365.27 116.79 387.74 87.23 412.55 59.95 M 341.04 142.21 C 364.86 114.03 388.38 85.6 412.55 59.95 M 346.02 142.57 C 372.69 111.19 398.29 81.94 417.54 60.31 M 346.02 142.57 C 360.79 123.86 376.72 107.01 417.54 60.31 M 351.67 142.18 C 371.38 121.68 388.08 101.49 423.18 59.91 M 351.67 142.18 C 374.64 116.48 397.3 89.64 423.18 59.91 M 356.65 142.54 C 372.81 123.72 386.92 104.41 428.17 60.27 M 356.65 142.54 C 375.74 118.37 395.5 95.37 428.17 60.27 M 362.3 142.14 C 383.81 116.84 409.02 88.09 433.81 59.88 M 362.3 142.14 C 380.87 120.71 400.58 97.63 433.81 59.88 M 367.28 142.5 C 392.52 110.57 418.03 84.42 438.8 60.24 M 367.28 142.5 C 392.62 112.08 420.92 79.98 438.8 60.24 M 372.93 142.11 C 387.51 122.04 405.92 106.11 444.44 59.84 M 372.93 142.11 C 397.84 112.56 421.89 85.2 444.44 59.84 M 377.91 142.47 C 393.52 121.82 412.32 105.29 449.43 60.2 M 377.91 142.47 C 404.05 112.09 431.34 82.49 449.43 60.2 M 383.56 142.07 C 403.62 122.51 418.62 101.53 455.07 59.81 M 383.56 142.07 C 400.36 121.32 418.92 100.62 455.07 59.81 M 388.55 142.43 C 401.26 126.73 415.95 110.21 460.06 60.17 M 388.55 142.43 C 413.42 113.59 439.47 82.3 460.06 60.17 M 394.19 142.04 C 411.43 121.45 433.8 97.95 465.7 59.77 M 394.19 142.04 C 413.19 121.96 430.3 100.87 465.7 59.77 M 399.18 142.4 C 421.33 116.48 447.09 87.78 470.69 60.13 M 399.18 142.4 C 423.8 113.67 448.63 85.29 470.69 60.13 M 404.82 142 C 431.5 115.26 455.05 86.52 476.33 59.74 M 404.82 142 C 432.27 111.31 459.62 79.54 476.33 59.74 M 409.81 142.36 C 433.06 116.42 453.53 88.19 481.32 60.1 M 409.81 142.36 C 433.09 113.98 458.24 86.02 481.32 60.1 M 415.45 141.97 C 439.17 111.02 467.79 84.26 486.96 59.7 M 415.45 141.97 C 431.58 124.17 448.05 105.48 486.96 59.7 M 420.44 142.33 C 437.38 124.46 455.44 104.29 491.95 60.06 M 420.44 142.33 C 436.53 122.08 453.97 103.49 491.95 60.06 M 426.08 141.93 C 451.05 113 474.32 87.72 497.59 59.67 M 426.08 141.93 C 449.79 113.58 472.99 87.84 497.59 59.67 M 431.07 142.29 C 460.58 111.02 485.13 79.56 502.58 60.03 M 431.07 142.29 C 460.06 111.15 488.05 77.58 502.58 60.03 M 436.05 142.65 C 461.34 113.93 484.07 88.43 508.22 59.64 M 436.05 142.65 C 449.22 126.28 464.25 109.91 508.22 59.64 M 441.7 142.26 C 469.4 113.65 494.63 80.93 513.21 60 M 441.7 142.26 C 457.53 125.24 472.38 107.39 513.21 60 M 446.68 142.62 C 475.38 110.32 502.08 81.46 518.19 60.36 M 446.68 142.62 C 468.9 117.27 489.42 91.96 518.19 60.36 M 452.33 142.22 C 472.82 116.54 495.32 95.63 523.84 59.96 M 452.33 142.22 C 478.95 112.52 506.04 81.55 523.84 59.96 M 457.31 142.58 C 478.27 121.58 497.49 98.51 528.82 60.32 M 457.31 142.58 C 476.23 120.68 494.13 98.59 528.82 60.32 M 462.96 142.19 C 488.54 111.74 515.75 81.28 534.47 59.93 M 462.96 142.19 C 490.98 109.61 520.22 77.96 534.47 59.93 M 467.94 142.55 C 488.1 123.53 505.48 102.56 539.45 60.29 M 467.94 142.55 C 487.03 119.93 506.91 99.32 539.45 60.29 M 473.59 142.16 C 490.65 123.08 510.44 103.19 545.1 59.89 M 473.59 142.16 C 493.23 119.07 512.89 95.68 545.1 59.89 M 478.57 142.52 C 503.63 116.12 525.16 87.7 550.08 60.25 M 478.57 142.52 C 496.1 121.54 515.18 99.39 550.08 60.25 M 484.22 142.12 C 505.55 115.46 529.63 88.94 555.73 59.86 M 484.22 142.12 C 502.65 119.56 522.94 99.54 555.73 59.86 M 489.2 142.48 C 508.99 119.98 528.02 99.91 560.71 60.22 M 489.2 142.48 C 513.18 115.21 537.72 87.11 560.71 60.22 M 494.85 142.09 C 514.68 120.58 529.84 101.25 566.36 59.82 M 494.85 142.09 C 514.08 120.69 531.76 100.31 566.36 59.82 M 499.83 142.45 C 518.93 121.35 534.12 100.64 571.34 60.18 M 499.83 142.45 C 525.23 113.92 550.31 84.88 571.34 60.18 M 505.48 142.05 C 532.52 111.21 560.02 77.09 576.99 59.79 M 505.48 142.05 C 522.33 122.59 539.98 103.44 576.99 59.79 M 510.46 142.41 C 529.6 121.43 547.93 97.54 581.97 60.15 M 510.46 142.41 C 534.85 113.56 560.77 83.87 581.97 60.15 M 516.11 142.02 C 540.54 112.65 567.42 82.33 587.62 59.75 M 516.11 142.02 C 530.34 124.85 545.57 105.93 587.62 59.75 M 521.09 142.38 C 541.5 117.62 563.61 93.23 592.6 60.11 M 521.09 142.38 C 542.4 117.36 564.77 92.97 592.6 60.11 M 526.74 141.98 C 551.91 112.56 576.04 82.83 598.25 59.72 M 526.74 141.98 C 547.38 117.63 568.12 95.45 598.25 59.72 M 531.72 142.34 C 552.47 119.28 570 97.06 603.23 60.08 M 531.72 142.34 C 555.66 113.79 579.8 86.18 603.23 60.08 M 537.37 141.95 C 561.49 113.77 585.76 86.64 608.88 59.69 M 537.37 141.95 C 566.55 110.95 593.96 78.14 608.88 59.69 M 542.35 142.31 C 567.02 113.82 590.24 86.73 613.86 60.05 M 542.35 142.31 C 569.48 112.26 596.22 81.22 613.86 60.05 M 547.34 142.67 C 565.36 119.97 584.02 97.44 619.51 59.65 M 547.34 142.67 C 571.23 115.54 594.9 89.13 619.51 59.65 M 552.98 142.27 C 572.75 121.49 591.25 100.49 624.49 60.01 M 552.98 142.27 C 572.43 120.99 590.2 98.98 624.49 60.01 M 557.97 142.63 C 579.18 113.64 603.94 88.6 629.48 60.37 M 557.97 142.63 C 585.23 110.75 612.11 80.41 629.48 60.37 M 563.61 142.24 C 588.54 114.83 611.5 90.27 635.12 59.98 M 563.61 142.24 C 579.2 123.51 594.71 105.1 635.12 59.98 M 568.6 142.6 C 584.41 123.83 599.06 106.77 640.11 60.34 M 568.6 142.6 C 586.9 122.13 602.98 100.12 640.11 60.34 M 574.24 142.21 C 595.67 120.83 614.28 98.57 645.75 59.94 M 574.24 142.21 C 588.82 124.04 604.89 106.69 645.75 59.94 M 579.23 142.57 C 604.47 113.84 627.55 86.82 650.74 60.3 M 579.23 142.57 C 601.62 116.08 627.2 87 650.74 60.3 M 584.87 142.17 C 600.43 124.05 617.83 107.37 656.38 59.91 M 584.87 142.17 C 599.12 123.58 614.74 108.01 656.38 59.91 M 589.86 142.53 C 617.01 111 641.3 79.84 661.37 60.27 M 589.86 142.53 C 609.19 120.25 629.13 98.77 661.37 60.27 M 595.5 142.14 C 614.42 119.88 630.99 100.19 667.01 59.87 M 595.5 142.14 C 615.93 118.93 636.68 94.96 667.01 59.87 M 600.49 142.5 C 620.36 120.62 639.61 96.95 672 60.23 M 600.49 142.5 C 626.77 114.7 650.67 84.25 672 60.23 M 606.13 142.1 C 625.66 120.38 642.11 96.49 677.64 59.84 M 606.13 142.1 C 625.6 118.4 647.43 93.79 677.64 59.84 M 611.12 142.46 C 630.75 119.84 654.1 95.68 681.32 61.71 M 611.12 142.46 C 635.82 114.2 661.85 85.03 681.32 61.71 M 616.76 142.07 C 639.64 117.9 662.33 92.92 681.71 67.35 M 616.76 142.07 C 634.08 123.49 650.05 103.72 681.71 67.35 M 621.75 142.43 C 634.96 126.61 647.5 111.43 681.45 73.75 M 621.75 142.43 C 640.14 121.97 657.05 102.59 681.45 73.75 M 627.39 142.03 C 644.42 120.88 663.47 97.94 681.85 79.39 M 627.39 142.03 C 646.13 119.81 665.58 99.1 681.85 79.39 M 632.38 142.39 C 645.47 128.57 659.4 112.5 681.59 85.79 M 632.38 142.39 C 643.93 128.01 655.93 114.81 681.59 85.79 M 638.02 142 C 652.77 124.13 670.13 108.17 681.32 92.19 M 638.02 142 C 651.13 127.2 664.31 111.81 681.32 92.19 M 643.01 142.36 C 656.3 124.36 672.37 108.49 681.72 97.83 M 643.01 142.36 C 657 126.84 668.45 112.1 681.72 97.83 M 648.65 141.96 C 661.16 126 673.31 113.55 681.46 104.23 M 648.65 141.96 C 656.04 134.19 661.79 125.37 681.46 104.23 M 653.64 142.32 C 662.19 132.67 675.46 119.32 681.85 109.87 M 653.64 142.32 C 664.35 130.08 675.29 116.68 681.85 109.87 M 659.28 141.93 C 665.88 134.73 674.27 124.66 681.59 116.27 M 659.28 141.93 C 665.75 132.75 673.38 124.98 681.59 116.27 M 664.27 142.29 C 669.43 135.1 675.63 127.58 681.33 122.67 M 664.27 142.29 C 667.57 137.54 672.15 133.21 681.33 122.67 M 669.26 142.65 C 674.5 135.1 679.24 132.94 681.72 128.31 M 669.26 142.65 C 672.19 138.13 676.65 134.59 681.72 128.31 M 674.9 142.25 C 676.16 139.85 679.52 137.77 681.46 134.71 M 674.9 142.25 C 676.08 140.45 677.39 139.15 681.46 134.71" fill="none" stroke="#d5e8d4" stroke-width="0.5" stroke-linejoin="round" stroke-linecap="round" stroke-miterlimit="10" transform="translate(480,0)scale(-1,1)translate(-480,0)" pointer-events="none"/><g fill="#97D077" font-family="Helvetica" font-weight="bold" pointer-events="none" text-anchor="middle" font-size="12px" transform="rotate(-90,677,100)"><text x="676.5" y="97.5">Client</text></g><path d="M 280 140 C 280 140 280 140 280 140 M 280 140 C 280 140 280 140 280 140 M 279.74 146.4 C 280.99 144.96 282.3 143.46 284.99 140.36 M 279.74 146.4 C 281.94 144.24 283.61 142.22 284.99 140.36 M 280.13 152.04 C 284.04 148.99 283.65 145.51 290.63 139.97 M 280.13 152.04 C 283.6 148.33 285.84 145.56 290.63 139.97 M 279.87 158.44 C 284.36 152.75 286.78 147.52 295.62 140.33 M 279.87 158.44 C 285.52 153.61 290.22 146.98 295.62 140.33 M 280.27 164.08 C 288.47 153.03 296.2 143.73 301.26 139.93 M 280.27 164.08 C 288.42 154.77 295.21 146.9 301.26 139.93 M 280 170.48 C 284.38 163.96 291.19 159.59 306.25 140.29 M 280 170.48 C 285.27 163.58 291.25 156.84 306.25 140.29 M 279.74 176.88 C 287.74 169.77 293.22 162.81 311.89 139.9 M 279.74 176.88 C 288.12 166.5 298.46 156.24 311.89 139.9 M 280.14 182.52 C 291.33 168.71 304.56 154.17 316.88 140.26 M 280.14 182.52 C 292.97 167.1 305.04 152.83 316.88 140.26 M 279.88 188.92 C 292.69 174.92 307.89 157.13 322.52 139.86 M 279.88 188.92 C 294.68 173.81 308.39 156.07 322.52 139.86 M 280.27 194.56 C 295.77 178.32 309.97 160.04 327.51 140.22 M 280.27 194.56 C 295.12 177.41 311.06 158.6 327.51 140.22 M 280.01 200.96 C 297.38 180.88 316.68 158.51 333.15 139.83 M 280.01 200.96 C 297.17 180.18 315.17 161.45 333.15 139.83 M 279.75 207.36 C 300.23 185.84 321.32 161.61 338.14 140.19 M 279.75 207.36 C 298.77 184.26 318.63 162.56 338.14 140.19 M 280.14 213 C 292.96 197.02 305.56 182.71 343.78 139.79 M 280.14 213 C 301.96 188.12 325.7 161.52 343.78 139.79 M 279.88 219.4 C 303.7 193.64 321.97 170.61 348.77 140.15 M 279.88 219.4 C 307.43 188.01 333.81 156.33 348.77 140.15 M 280.28 225.04 C 300.98 202.11 318.94 178.93 354.41 139.76 M 280.28 225.04 C 302.31 199.17 324.74 173.49 354.41 139.76 M 280.01 231.44 C 302.42 206.71 322.59 181.33 359.4 140.12 M 280.01 231.44 C 294.89 212.04 311.07 193.58 359.4 140.12 M 279.75 237.84 C 309.31 203.3 340.62 167.76 365.04 139.72 M 279.75 237.84 C 306.41 207.16 331.44 178.51 365.04 139.72 M 280.15 243.48 C 302.24 216.85 322.98 195.6 370.03 140.08 M 280.15 243.48 C 309.15 211.71 338.77 176.9 370.03 140.08 M 279.89 249.88 C 307.77 216.46 337.92 182.09 375.67 139.69 M 279.89 249.88 C 307.55 217.04 335.69 185.78 375.67 139.69 M 280.28 255.52 C 307.72 222.99 336.89 190.22 380.66 140.05 M 280.28 255.52 C 302.85 229.14 324.33 206.11 380.66 140.05 M 280.02 261.92 C 305.49 230.49 332.28 201.17 386.3 139.66 M 280.02 261.92 C 308.29 230.92 335.11 200.36 386.3 139.66 M 279.76 268.32 C 308.93 235.22 336.36 203.94 391.29 140.02 M 279.76 268.32 C 322.48 220.16 363.93 171.96 391.29 140.02 M 280.15 273.96 C 320.51 227.4 360.72 181.83 396.27 140.38 M 280.15 273.96 C 321.78 225.83 362.99 176.19 396.27 140.38 M 279.89 280.36 C 304.37 251.36 333.72 220.07 401.92 139.98 M 279.89 280.36 C 307.75 248.45 335.75 217.03 401.92 139.98 M 280.29 286 C 308.22 251.94 333.83 219.93 406.91 140.34 M 280.29 286 C 313.61 247.68 345.42 210.68 406.91 140.34 M 280.02 292.4 C 308.73 259.64 335.93 229.97 412.55 139.95 M 280.02 292.4 C 307.39 261.79 334.05 230.21 412.55 139.95 M 279.76 298.8 C 324.51 248.03 370.25 196.6 417.54 140.31 M 279.76 298.8 C 325.7 245.12 373.06 190.14 417.54 140.31 M 280.16 304.44 C 322.02 253.37 368.37 203.96 423.18 139.91 M 280.16 304.44 C 320.02 259.5 358.47 213.78 423.18 139.91 M 279.9 310.84 C 310.82 276.59 341.24 240.8 428.17 140.27 M 279.9 310.84 C 329.26 255.06 378.65 199.47 428.17 140.27 M 280.29 316.48 C 331.24 255.83 383.62 192.81 433.81 139.88 M 280.29 316.48 C 313.7 276.79 348.73 237.18 433.81 139.88 M 280.03 322.88 C 313.21 282.88 347.19 243.67 438.8 140.24 M 280.03 322.88 C 320.55 276.89 361.09 229.3 438.8 140.24 M 279.77 329.27 C 314.72 287.74 352.56 245.02 444.44 139.84 M 279.77 329.27 C 340.4 259.77 400.18 192.46 444.44 139.84 M 280.16 334.92 C 347.08 259.21 415.25 180.75 449.43 140.2 M 280.16 334.92 C 326.18 281.63 372.52 228.54 449.43 140.2 M 279.9 341.32 C 342.13 272.06 402.52 198.82 455.07 139.81 M 279.9 341.32 C 316.43 298.47 355.58 254.58 455.07 139.81 M 280.3 346.96 C 353.01 262.25 425.89 180.77 460.06 140.17 M 280.3 346.96 C 331.92 288.64 382.04 230.28 460.06 140.17 M 280.03 353.36 C 324.51 302.24 368.89 249.33 465.7 139.77 M 280.03 353.36 C 328.08 296.61 376.29 242.26 465.7 139.77 M 279.77 359.75 C 349.23 275.96 422.34 193.09 470.69 140.13 M 279.77 359.75 C 329.96 301.17 379.98 244.75 470.69 140.13 M 280.17 365.4 C 346.05 288.8 412.82 214.95 476.33 139.74 M 280.17 365.4 C 350.81 283.81 421.56 202.4 476.33 139.74 M 279.91 371.8 C 338.39 305.93 395.67 239.9 481.32 140.1 M 279.91 371.8 C 354.13 284.76 428.42 197.11 481.32 140.1 M 280.3 377.44 C 345.52 304.14 409.09 232.11 486.96 139.7 M 280.3 377.44 C 349.99 298.32 417.73 220.9 486.96 139.7 M 280.04 383.84 C 362.72 292.97 442.9 202.36 491.95 140.06 M 280.04 383.84 C 332.67 322.47 384.84 263.95 491.95 140.06 M 279.78 390.23 C 325.78 335.89 375.36 281.7 497.59 139.67 M 279.78 390.23 C 364.14 292.48 449.42 194.18 497.59 139.67 M 280.17 395.88 C 349.57 317.52 418.44 238.94 502.58 140.03 M 280.17 395.88 C 342.42 324.31 402.66 254.87 502.58 140.03 M 279.91 402.27 C 360.26 309.87 439.66 217.18 508.22 139.64 M 279.91 402.27 C 347.8 324.37 415.79 245.24 508.22 139.64 M 280.3 407.92 C 338.24 341.59 394.64 276.83 513.21 140 M 280.3 407.92 C 361.62 315.48 441.71 222.71 513.21 140 M 280.04 414.32 C 364.65 314.02 452.48 216.62 518.19 140.36 M 280.04 414.32 C 335.38 350.92 389.4 288.45 518.19 140.36 M 279.78 420.71 C 361.23 324.72 444.75 231.5 523.84 139.96 M 279.78 420.71 C 352.66 338.85 423.42 256.45 523.84 139.96 M 280.18 426.36 C 364.77 330.31 449.73 233.46 528.82 140.32 M 280.18 426.36 C 347.53 346.45 414.58 269.22 528.82 140.32 M 279.92 432.75 C 343.68 361.37 407.35 286.58 534.47 139.93 M 279.92 432.75 C 343.85 358.52 407.67 283.25 534.47 139.93 M 280.31 438.4 C 367.31 336.52 455.14 234.58 539.45 140.29 M 280.31 438.4 C 373.3 330.33 466.55 223.22 539.45 140.29 M 280.05 444.8 C 347.29 370.04 411.44 293.6 545.1 139.89 M 280.05 444.8 C 364.82 346.92 448.95 250.17 545.1 139.89 M 279.79 451.19 C 353.29 367.61 424.56 286.24 550.08 140.25 M 279.79 451.19 C 369.82 347.83 458.79 244.3 550.08 140.25 M 280.18 456.84 C 364.41 362.36 445.34 266.83 555.73 139.86 M 280.18 456.84 C 349.03 375.79 419.27 295.83 555.73 139.86 M 281.23 461.72 C 380.24 346 482.04 227.59 560.71 140.22 M 281.23 461.72 C 355.02 379.81 426.19 297.4 560.71 140.22 M 286.88 461.33 C 386.53 345.01 486.96 230.19 566.36 139.82 M 286.88 461.33 C 343.39 396.72 400.86 330.22 566.36 139.82 M 291.86 461.69 C 385.95 352.27 482.01 241.6 571.34 140.18 M 291.86 461.69 C 383.29 356.86 475.54 251.62 571.34 140.18 M 297.51 461.3 C 383.9 361.59 469.58 263.65 576.99 139.79 M 297.51 461.3 C 406.07 336.4 515.5 211.26 576.99 139.79 M 302.49 461.66 C 375.44 380.14 447.69 297 581.97 140.15 M 302.49 461.66 C 404.63 346.31 505.62 230.72 581.97 140.15 M 308.14 461.26 C 364.28 396.28 419.78 331.75 587.62 139.75 M 308.14 461.26 C 419.23 333.32 529.86 206.8 587.62 139.75 M 313.12 461.62 C 375.23 392.13 436.27 323.35 592.6 140.11 M 313.12 461.62 C 396.64 366.37 478.14 271.3 592.6 140.11 M 318.77 461.23 C 381.11 387.06 443.8 314.72 598.25 139.72 M 318.77 461.23 C 397.6 371.16 477.36 279.1 598.25 139.72 M 323.75 461.59 C 402.18 369.58 480.17 279.84 603.23 140.08 M 323.75 461.59 C 403.03 368.61 484.17 274.87 603.23 140.08 M 329.4 461.19 C 425.98 349.21 522.75 239.58 608.88 139.69 M 329.4 461.19 C 413.1 365.13 494.76 269.61 608.88 139.69 M 334.38 461.55 C 433.14 344.76 532.97 230.13 613.86 140.05 M 334.38 461.55 C 399.24 387.34 463.7 312.8 613.86 140.05 M 340.03 461.16 C 405.55 387.34 469.91 314.01 619.51 139.65 M 340.03 461.16 C 432.81 353.12 527.63 244.54 619.51 139.65 M 345.01 461.52 C 431.96 361.65 520.1 262.51 624.49 140.01 M 345.01 461.52 C 410.21 387.54 474.68 313.43 624.49 140.01 M 350.66 461.12 C 453.64 345.4 554.21 229.09 629.48 140.37 M 350.66 461.12 C 431.2 366.16 512.74 272.3 629.48 140.37 M 355.64 461.48 C 426.31 379.91 497.47 299.56 635.12 139.98 M 355.64 461.48 C 444.07 358.26 533.48 255.12 635.12 139.98 M 361.29 461.09 C 449.64 360.46 540.32 256.51 640.11 140.34 M 361.29 461.09 C 449.7 359.41 538.86 257.1 640.11 140.34 M 366.27 461.45 C 437.54 379.67 507.95 299.36 645.75 139.94 M 366.27 461.45 C 466.67 345.73 566.63 231.45 645.75 139.94 M 371.92 461.05 C 450.75 370.87 528.14 282.52 650.74 140.3 M 371.92 461.05 C 467.7 348.77 564.43 237.66 650.74 140.3 M 376.9 461.41 C 439.5 390.33 501.73 318.6 656.38 139.91 M 376.9 461.41 C 465.05 359.08 553.01 257.42 656.38 139.91 M 382.55 461.02 C 471.51 358.63 558.59 257.39 661.37 140.27 M 382.55 461.02 C 488.24 338.2 594.09 216.12 661.37 140.27 M 387.53 461.38 C 451.79 387.45 517.66 310.83 667.01 139.87 M 387.53 461.38 C 443.43 395.54 501.19 328.83 667.01 139.87 M 393.18 460.98 C 480.33 361.12 569.59 258.29 672 140.23 M 393.18 460.98 C 504.6 334.16 615.01 206.96 672 140.23 M 398.16 461.34 C 458.71 392.95 516.23 325.28 677.64 139.84 M 398.16 461.34 C 495.13 349.66 592.72 237.19 677.64 139.84 M 403.15 461.7 C 478.32 375.4 552.01 291.26 681.32 141.71 M 403.15 461.7 C 470.17 382.88 538.81 304.46 681.32 141.71 M 408.79 461.31 C 467.03 394.51 526.03 327.22 681.71 147.35 M 408.79 461.31 C 488.47 366.65 569.07 273.69 681.71 147.35 M 413.78 461.67 C 509 355.91 601.03 247.63 681.45 153.75 M 413.78 461.67 C 507.87 353.87 600.84 246.17 681.45 153.75 M 419.42 461.28 C 518.55 346.88 616.33 232.82 681.85 159.39 M 419.42 461.28 C 502.98 363.7 588.32 266.49 681.85 159.39 M 424.41 461.64 C 486.87 389.15 549.37 314.52 681.59 165.79 M 424.41 461.64 C 476.68 400.53 529.31 339.53 681.59 165.79 M 430.05 461.24 C 523.8 352.6 618.23 246.1 681.32 172.19 M 430.05 461.24 C 511.15 369.55 592.81 276.31 681.32 172.19 M 435.04 461.6 C 496.25 392.13 561 318.26 681.72 177.83 M 435.04 461.6 C 507.95 378.94 579.92 296.54 681.72 177.83 M 440.68 461.21 C 519.63 373.67 598.77 281.89 681.46 184.23 M 440.68 461.21 C 516.82 375.68 593.74 288.57 681.46 184.23 M 445.67 461.57 C 528.72 364.13 613.09 266.44 681.85 189.87 M 445.67 461.57 C 526.52 367.61 607.71 274.39 681.85 189.87 M 451.31 461.17 C 526.21 378.55 598.23 295.34 681.59 196.27 M 451.31 461.17 C 530.45 368.62 610.13 277.15 681.59 196.27 M 456.3 461.53 C 533.9 372.68 611.18 283.15 681.33 202.67 M 456.3 461.53 C 520.38 388.57 583.73 314.48 681.33 202.67 M 461.94 461.14 C 518.56 395.28 577.04 326.82 681.72 208.31 M 461.94 461.14 C 546.19 365.24 629.78 268.98 681.72 208.31 M 466.93 461.5 C 535.75 381.49 603.13 304.9 681.46 214.71 M 466.93 461.5 C 530.67 387.06 596.29 312.03 681.46 214.71 M 472.57 461.1 C 526.68 399.76 580.66 334.04 681.86 220.35 M 472.57 461.1 C 517.7 408.94 561.55 357.46 681.86 220.35 M 477.56 461.46 C 552.35 378.79 627.23 294.26 681.6 226.75 M 477.56 461.46 C 550.81 375.96 625.2 290.98 681.6 226.75 M 483.2 461.07 C 531.47 408.28 578.57 352.83 681.33 233.15 M 483.2 461.07 C 554.38 379.87 623.47 299.14 681.33 233.15 M 488.19 461.43 C 542.71 400.01 596.12 336.4 681.73 238.79 M 488.19 461.43 C 547.89 393.87 606.17 325.96 681.73 238.79 M 493.83 461.03 C 548.2 402.66 598.66 341.53 681.47 245.19 M 493.83 461.03 C 558.99 389.11 621.79 314.57 681.47 245.19 M 498.82 461.39 C 546.81 408.2 594.74 352.34 681.86 250.83 M 498.82 461.39 C 559.8 390.33 622.23 317.83 681.86 250.83 M 504.46 461 C 560.11 396.09 615.98 329.55 681.6 257.23 M 504.46 461 C 543.88 412.52 585.34 365.3 681.6 257.23 M 509.45 461.36 C 547.95 420.46 583.42 376.27 681.34 263.63 M 509.45 461.36 C 569.25 390.91 629.39 320.74 681.34 263.63 M 514.44 461.72 C 554.69 416.01 596.66 368.94 681.73 269.27 M 514.44 461.72 C 566.74 401.89 619.84 341.32 681.73 269.27 M 520.08 461.33 C 558.46 418.79 595.79 376 681.47 275.67 M 520.08 461.33 C 585.64 386.98 651.25 313.45 681.47 275.67 M 525.07 461.69 C 587.75 389.67 647.07 318.34 681.87 281.31 M 525.07 461.69 C 589.97 389.2 651.38 317.69 681.87 281.31 M 530.71 461.29 C 578.16 406.86 627.86 349.83 681.6 287.71 M 530.71 461.29 C 563.37 425.76 597.22 387.84 681.6 287.71 M 535.7 461.65 C 575.67 418.15 613.66 374.36 681.34 294.11 M 535.7 461.65 C 582.67 409.88 627.5 356.63 681.34 294.11 M 541.34 461.26 C 582.79 416.4 620.97 371.78 681.74 299.75 M 541.34 461.26 C 582.78 411.9 625.4 363.83 681.74 299.75 M 546.33 461.62 C 598.09 401.24 651.66 342.48 681.48 306.15 M 546.33 461.62 C 573.25 429.09 602.99 396.34 681.48 306.15 M 551.97 461.22 C 580.06 424.85 610.73 392.84 681.87 311.79 M 551.97 461.22 C 584.25 425.62 615.42 388.11 681.87 311.79 M 556.96 461.58 C 590.6 423.48 621.43 389.93 681.61 318.19 M 556.96 461.58 C 591.65 424.36 625.61 386.14 681.61 318.19 M 562.6 461.19 C 592 425.69 621.98 390.1 681.35 324.59 M 562.6 461.19 C 607 408.93 653.73 356.1 681.35 324.59 M 567.59 461.55 C 594.98 429.85 620.41 402.21 681.74 330.23 M 567.59 461.55 C 611.8 410.25 656.61 358.88 681.74 330.23 M 573.23 461.15 C 614.15 415.27 654.14 368.48 681.48 336.63 M 573.23 461.15 C 611.52 417.75 650.23 373.34 681.48 336.63 M 578.22 461.51 C 617.11 417.37 659.9 370.45 681.88 342.27 M 578.22 461.51 C 610.55 426.57 642.27 389.57 681.88 342.27 M 583.86 461.12 C 601.74 438.42 623.85 417.84 681.61 348.67 M 583.86 461.12 C 619.25 421.95 654.59 381.64 681.61 348.67 M 588.85 461.48 C 618.43 427.81 644.11 397.15 681.35 355.06 M 588.85 461.48 C 611.26 435.81 634.91 409.16 681.35 355.06 M 594.49 461.08 C 616.43 438.18 634.34 411.77 681.75 360.71 M 594.49 461.08 C 616.83 434.72 638.48 408.84 681.75 360.71 M 599.48 461.44 C 617.09 438.74 636.71 417.61 681.49 367.11 M 599.48 461.44 C 624.22 433.61 650.66 404.55 681.49 367.11 M 605.12 461.05 C 622 443.6 637.22 424.1 681.88 372.75 M 605.12 461.05 C 628.83 434.3 651.02 407.18 681.88 372.75 M 610.11 461.41 C 638.27 431.25 661.28 401.37 681.62 379.15 M 610.11 461.41 C 629.15 439.03 647.32 417.36 681.62 379.15 M 615.75 461.02 C 637.6 434.43 657.54 410.47 681.36 385.54 M 615.75 461.02 C 629.65 443.47 643.34 428.12 681.36 385.54 M 620.74 461.38 C 635.04 447.41 644.66 434.43 681.75 391.19 M 620.74 461.38 C 641.37 438.46 662.37 413.21 681.75 391.19 M 626.38 460.98 C 635.66 447.99 648.94 435.06 681.49 397.58 M 626.38 460.98 C 643.03 442.59 657.49 424.45 681.49 397.58 M 631.37 461.34 C 645.68 445.3 661.88 428.74 681.89 403.23 M 631.37 461.34 C 646.26 445.56 659.64 427.74 681.89 403.23 M 636.36 461.7 C 654.45 444.4 668.11 423.21 681.62 409.63 M 636.36 461.7 C 648.26 447.57 662.4 432.63 681.62 409.63 M 642 461.31 C 654.41 446.41 669.47 432.71 681.36 416.02 M 642 461.31 C 652.31 450.22 663.16 437.55 681.36 416.02 M 646.99 461.67 C 658.51 447.47 666.58 435.83 681.76 421.67 M 646.99 461.67 C 658.83 447.53 670.91 433.29 681.76 421.67 M 652.63 461.27 C 661.53 451.99 669.45 442.02 681.5 428.06 M 652.63 461.27 C 662.84 450.38 672.55 437.86 681.5 428.06 M 657.62 461.63 C 661.88 452.7 671.92 445.35 681.89 433.71 M 657.62 461.63 C 665.21 454.38 671.16 445.51 681.89 433.71 M 663.26 461.24 C 667.41 455.41 672.88 450.92 681.63 440.11 M 663.26 461.24 C 667.93 454.34 672.5 449.62 681.63 440.11 M 668.25 461.6 C 670.96 458.15 676.73 451.96 681.37 446.5 M 668.25 461.6 C 673.01 456.92 676.56 453.2 681.37 446.5 M 673.89 461.2 C 676.21 460.41 677.95 457.9 681.76 452.15 M 673.89 461.2 C 675.97 458.95 677.95 456.21 681.76 452.15" fill="none" stroke="#fff2cc" stroke-width="0.5" stroke-linejoin="round" stroke-linecap="round" stroke-miterlimit="10" transform="translate(480,0)scale(-1,1)translate(-480,0)" pointer-events="none"/><g fill="#E0BF5A" font-family="Helvetica" font-weight="bold" pointer-events="none" text-anchor="middle" font-size="12px" transform="rotate(-90,677,300)"><text x="676.5" y="297.5">Product</text></g><path d="M 40 60 C 40 60 40 60 40 60 M 40 60 C 40 60 40 60 40 60 M 39.74 66.4 C 41.84 64.32 43.69 62.99 44.99 60.36 M 39.74 66.4 C 41.08 64.43 42.39 63.37 44.99 60.36 M 40.13 72.04 C 44.36 66.79 48.86 63.05 50.63 59.97 M 40.13 72.04 C 43.11 69.13 45.66 64.68 50.63 59.97 M 39.87 78.44 C 42.75 71.95 47.64 66.81 55.62 60.33 M 39.87 78.44 C 45.19 71.83 49.12 67.95 55.62 60.33 M 40.27 84.08 C 47.52 76.32 53.78 70.49 61.26 59.93 M 40.27 84.08 C 46.95 75.83 55.53 68.22 61.26 59.93 M 40 90.48 C 47.91 81.79 51.94 73.27 66.25 60.29 M 40 90.48 C 49.74 79.03 59.49 68.52 66.25 60.29 M 39.74 96.88 C 50.71 84.1 61.87 74.57 71.89 59.9 M 39.74 96.88 C 49.67 86.19 60.1 73.12 71.89 59.9 M 40.14 102.52 C 51.69 88.07 64.83 72.42 76.88 60.26 M 40.14 102.52 C 50.35 90.43 60.7 78.92 76.88 60.26 M 39.88 108.92 C 50.84 93.25 65.47 81.12 82.52 59.86 M 39.88 108.92 C 52.7 95.36 65.76 80.56 82.52 59.86 M 40.27 114.56 C 56.9 91.91 74.16 74.28 87.51 60.22 M 40.27 114.56 C 49.49 102.81 59.93 89.8 87.51 60.22 M 40.01 120.96 C 58.29 100.36 76.7 77.41 93.15 59.83 M 40.01 120.96 C 57.33 101.37 72.44 82.94 93.15 59.83 M 39.75 127.36 C 59.89 103.42 79.84 83.11 98.14 60.19 M 39.75 127.36 C 60.01 101.52 82.91 77.54 98.14 60.19 M 40.14 133 C 53.28 115.67 70.81 98.06 103.78 59.79 M 40.14 133 C 55.63 112.96 73.32 93.97 103.78 59.79 M 39.88 139.4 C 55.15 122.48 70.92 105.7 108.77 60.15 M 39.88 139.4 C 58.2 119.5 75.46 98.66 108.77 60.15 M 40.28 145.04 C 67.04 112.7 96.5 80.24 114.41 59.76 M 40.28 145.04 C 58.46 123.9 78.42 103.02 114.41 59.76 M 40.01 151.44 C 60.55 126.65 79.32 104.75 119.4 60.12 M 40.01 151.44 C 69.85 117.96 98.88 85.82 119.4 60.12 M 39.75 157.84 C 59.47 136.83 79.03 114.94 125.04 59.72 M 39.75 157.84 C 74.73 120.04 108.41 79.66 125.04 59.72 M 40.15 163.48 C 62.48 137.34 87.32 108.53 130.03 60.08 M 40.15 163.48 C 73.94 125.56 106.43 85.97 130.03 60.08 M 39.89 169.88 C 73.57 127.95 109.79 88.22 135.67 59.69 M 39.89 169.88 C 60.17 146.68 81.08 122.81 135.67 59.69 M 40.28 175.52 C 65.91 146.28 90.1 119.88 140.66 60.05 M 40.28 175.52 C 69.56 141.06 97.7 109.11 140.66 60.05 M 40.02 181.92 C 77.34 141.75 113.13 98.25 146.3 59.66 M 40.02 181.92 C 69.69 146.47 100.22 111.91 146.3 59.66 M 39.76 188.32 C 69.04 154.81 99.73 118.59 151.29 60.02 M 39.76 188.32 C 77.67 146.03 116.2 100.34 151.29 60.02 M 40.15 193.96 C 69.77 160.08 94.14 129.43 156.27 60.38 M 40.15 193.96 C 81.56 148.48 121.06 101.87 156.27 60.38 M 39.89 200.36 C 79.61 152.32 123.78 103 161.92 59.98 M 39.89 200.36 C 71.68 163.58 103.36 126.33 161.92 59.98 M 40.29 206 C 83.51 155.16 126.68 104.94 166.91 60.34 M 40.29 206 C 66.12 173.89 92.9 143.81 166.91 60.34 M 40.02 212.4 C 86.13 156.6 133.91 103.04 172.55 59.95 M 40.02 212.4 C 68.78 180.52 96.77 150.1 172.55 59.95 M 39.76 218.8 C 77.57 178.29 112.52 137.95 177.54 60.31 M 39.76 218.8 C 74.92 177.66 109.26 137.35 177.54 60.31 M 40.16 224.44 C 87.81 168.62 138.47 115.18 183.18 59.91 M 40.16 224.44 C 78.12 180.39 114.25 138.8 183.18 59.91 M 39.9 230.84 C 92.58 167.62 145.82 106.46 188.17 60.27 M 39.9 230.84 C 87.96 174.89 137.88 119.31 188.17 60.27 M 40.29 236.48 C 97.48 170.88 155.76 105.08 193.81 59.88 M 40.29 236.48 C 84.74 181.73 131.28 129.17 193.81 59.88 M 40.03 242.88 C 101.01 173.9 161.12 106.21 198.8 60.24 M 40.03 242.88 C 78.82 198.82 115.91 154.47 198.8 60.24 M 39.77 249.27 C 90.58 188.54 142.68 127.99 204.44 59.84 M 39.77 249.27 C 96.78 184.48 152.26 119.1 204.44 59.84 M 40.16 254.92 C 77.68 213.2 112.03 174.77 209.43 60.2 M 40.16 254.92 C 83.57 203.48 129.05 152.17 209.43 60.2 M 39.9 261.32 C 87.03 205.63 135.75 153.05 215.07 59.81 M 39.9 261.32 C 77.14 219.09 113.71 174.59 215.07 59.81 M 40.3 266.96 C 88.72 209.85 141.78 149.86 220.06 60.17 M 40.3 266.96 C 84.11 213.98 130.57 160.94 220.06 60.17 M 40.03 273.36 C 96.68 206.33 153.32 139.2 225.7 59.77 M 40.03 273.36 C 87.21 219.9 134.47 166.21 225.7 59.77 M 39.77 279.75 C 86.79 228.28 132.28 176.99 230.69 60.13 M 39.77 279.75 C 102.59 208.32 163.31 137.79 230.69 60.13 M 40.17 285.4 C 108.79 206.77 177.83 127.83 236.33 59.74 M 40.17 285.4 C 83.04 237.52 126.11 188.61 236.33 59.74 M 39.91 291.8 C 81.53 243.11 121.78 196.56 241.32 60.1 M 39.91 291.8 C 109.74 211.54 180.15 129.93 241.32 60.1 M 40.3 297.44 C 94.71 234.18 150.41 171.71 246.96 59.7 M 40.3 297.44 C 122.52 204.12 203.13 111.74 246.96 59.7 M 40.04 303.84 C 111.82 221.13 183.16 137.6 251.95 60.06 M 40.04 303.84 C 99.6 233.42 160.48 163.09 251.95 60.06 M 39.78 310.23 C 86.23 256.84 130.67 205.58 257.59 59.67 M 39.78 310.23 C 95.32 244.9 153.08 179.42 257.59 59.67 M 40.17 315.88 C 105.54 243.6 169.75 167.56 262.58 60.03 M 40.17 315.88 C 94.14 253.35 149.19 189.89 262.58 60.03 M 39.91 322.27 C 99.46 253.25 158.79 184.27 268.22 59.64 M 39.91 322.27 C 95.02 256.54 151.32 192.13 268.22 59.64 M 40.3 327.92 C 116.38 242.5 188.82 157.28 273.21 60 M 40.3 327.92 C 88.01 271.58 136.09 215.53 273.21 60 M 40.04 334.32 C 130.3 229.42 222.92 123.36 278.19 60.36 M 40.04 334.32 C 126 233.82 214.29 132.02 278.19 60.36 M 39.78 340.71 C 136.86 230.58 231.69 119.67 281.87 62.23 M 39.78 340.71 C 118.27 251.08 196.58 161.34 281.87 62.23 M 40.18 346.36 C 110.34 265.76 181.51 185.21 282.26 67.87 M 40.18 346.36 C 132.83 241.06 225.55 135.65 282.26 67.87 M 39.92 352.75 C 113.02 268.77 184.48 184.85 282 74.27 M 39.92 352.75 C 89.9 292.57 141.18 233.7 282 74.27 M 40.31 358.4 C 125.2 263.33 207.32 166.34 282.4 79.91 M 40.31 358.4 C 98.49 292.9 155.4 226.52 282.4 79.91 M 40.05 364.8 C 118.21 276.18 195.3 187.14 282.13 86.31 M 40.05 364.8 C 100.42 292.6 162.47 220.69 282.13 86.31 M 39.79 371.19 C 107.62 295.15 175.19 215.57 281.87 92.7 M 39.79 371.19 C 92.6 309.23 147.04 247.5 281.87 92.7 M 40.18 376.84 C 122.69 280.8 206.98 184.15 282.27 98.35 M 40.18 376.84 C 114.79 293.12 189.26 207.89 282.27 98.35 M 39.92 383.23 C 108.81 304.56 176.01 228.11 282.01 104.75 M 39.92 383.23 C 97.83 318.15 154.92 252.11 282.01 104.75 M 40.31 388.88 C 131.27 282.78 223.55 177.54 282.4 110.39 M 40.31 388.88 C 131.03 281.9 223.58 176.8 282.4 110.39 M 40.05 395.27 C 107.35 317.64 174.96 238.87 282.14 116.79 M 40.05 395.27 C 110.34 314.25 181.19 232.97 282.14 116.79 M 39.79 401.67 C 94.7 338.55 151.59 273.13 281.88 123.18 M 39.79 401.67 C 127.75 298.74 216.81 196.94 281.88 123.18 M 40.19 407.32 C 112.05 326.55 182.07 244.47 282.27 128.83 M 40.19 407.32 C 91.36 347.51 143.59 288.05 282.27 128.83 M 39.92 413.71 C 93.59 351.61 146.14 291.71 282.01 135.23 M 39.92 413.71 C 114.13 326.26 191.12 239.41 282.01 135.23 M 40.32 419.36 C 105.5 346.29 169.09 273.06 282.41 140.87 M 40.32 419.36 C 129.44 318.44 217 217.23 282.41 140.87 M 40.06 425.75 C 105.78 352.84 170.07 277.68 282.14 147.27 M 40.06 425.75 C 124.86 328.21 208.85 231.8 282.14 147.27 M 39.8 432.15 C 92.29 371.86 146.87 308.6 281.88 153.66 M 39.8 432.15 C 111.94 348.34 182.82 265.62 281.88 153.66 M 40.19 437.79 C 91.44 381.38 139.46 326.06 282.28 159.31 M 40.19 437.79 C 125.83 340.82 209.37 243.06 282.28 159.31 M 39.93 444.19 C 121.43 352.16 202.05 259.27 282.02 165.7 M 39.93 444.19 C 114.51 359.56 187.76 275.08 282.02 165.7 M 40.32 449.84 C 107 374.66 175.94 296.21 282.41 171.35 M 40.32 449.84 C 107.93 371.38 174.23 293.57 282.41 171.35 M 40.06 456.23 C 97.16 390.68 153.31 325.82 282.15 177.75 M 40.06 456.23 C 106.88 377.62 174.69 301.2 282.15 177.75 M 41.11 461.12 C 96.57 396.65 152.6 333.03 281.89 184.14 M 41.11 461.12 C 100.33 392.91 160.65 322.3 281.89 184.14 M 46.76 460.73 C 119.06 377.05 191.71 290.73 282.28 189.79 M 46.76 460.73 C 102.26 394.93 160.15 329.86 282.28 189.79 M 51.74 461.09 C 105.25 403.91 156.32 344.16 282.02 196.18 M 51.74 461.09 C 112.12 390.71 171.46 321.11 282.02 196.18 M 57.39 460.69 C 104.48 406.2 154.24 352.86 282.41 201.83 M 57.39 460.69 C 109.17 401.27 160.91 340.6 282.41 201.83 M 62.37 461.05 C 130.42 382.51 201.4 302.38 282.15 208.23 M 62.37 461.05 C 120.18 395.24 178.75 328.79 282.15 208.23 M 68.02 460.66 C 143.72 373.4 216.92 290.46 281.89 214.62 M 68.02 460.66 C 153.58 363.18 238.29 264.46 281.89 214.62 M 73 461.02 C 152.7 366.62 235.37 275.25 282.29 220.27 M 73 461.02 C 131.66 393.54 190 325.47 282.29 220.27 M 77.99 461.38 C 152.48 375.84 229.36 289.37 282.03 226.66 M 77.99 461.38 C 141.08 390.19 203.63 319.01 282.03 226.66 M 83.63 460.98 C 124.38 415.96 164.68 366.91 282.42 232.31 M 83.63 460.98 C 142.79 392.11 201.88 323.95 282.42 232.31 M 88.62 461.34 C 148.54 392.68 206.7 322.75 282.16 238.7 M 88.62 461.34 C 138.14 405.56 185.36 351.45 282.16 238.7 M 94.26 460.95 C 160.5 381.34 229.05 303.88 281.9 245.1 M 94.26 460.95 C 166.27 377.48 237.39 295.7 281.9 245.1 M 99.25 461.31 C 144.85 409.92 190.74 357.83 282.29 250.75 M 99.25 461.31 C 157.58 393.29 216.36 325.28 282.29 250.75 M 104.89 460.91 C 171.3 386.95 234.54 312.88 282.03 257.14 M 104.89 460.91 C 165.86 389.07 227.15 317.61 282.03 257.14 M 109.88 461.28 C 146.71 418.34 185.03 378.49 282.42 262.79 M 109.88 461.28 C 168.75 391.39 230.95 321.51 282.42 262.79 M 115.52 460.88 C 164.36 403.68 213.4 350.06 282.16 269.18 M 115.52 460.88 C 165.82 403.7 216.31 347.04 282.16 269.18 M 120.51 461.24 C 168.56 405.49 219.38 349.21 281.9 275.58 M 120.51 461.24 C 182.7 391.5 243.88 321.77 281.9 275.58 M 126.15 460.85 C 186.22 394.06 243.99 325.88 282.3 281.23 M 126.15 460.85 C 170.74 410.06 214.76 360.69 282.3 281.23 M 131.14 461.21 C 185.52 398.44 241.74 335.42 282.03 287.62 M 131.14 461.21 C 184.54 399.02 236.52 338.73 282.03 287.62 M 136.78 460.81 C 170.01 422.19 203.48 383.52 282.43 293.27 M 136.78 460.81 C 170.95 422.03 203.88 382.38 282.43 293.27 M 141.77 461.17 C 186.96 407.53 232.54 356 282.17 299.66 M 141.77 461.17 C 177.4 420.01 211.71 380.31 282.17 299.66 M 147.41 460.78 C 200.65 401.13 250.07 341.97 281.91 306.06 M 147.41 460.78 C 178.93 424.48 212.72 386.47 281.91 306.06 M 152.4 461.14 C 182.39 425.33 210.7 393.37 282.3 311.7 M 152.4 461.14 C 196.48 408.45 243.23 355.46 282.3 311.7 M 158.04 460.74 C 200.28 410.75 245.53 359.81 282.04 318.1 M 158.04 460.74 C 190.68 421.79 224.61 385.6 282.04 318.1 M 163.03 461.1 C 186.68 430.96 213.03 403.49 282.43 323.75 M 163.03 461.1 C 205.37 409.33 250.47 357.07 282.43 323.75 M 168.67 460.71 C 190.41 432.16 214.2 407.76 282.17 330.14 M 168.67 460.71 C 193.96 429.23 219.94 398.62 282.17 330.14 M 173.66 461.07 C 212.61 415.81 253.47 368.97 281.91 336.54 M 173.66 461.07 C 208.94 420.88 246.28 377.97 281.91 336.54 M 179.3 460.67 C 218.33 415.42 258.75 369.96 282.31 342.18 M 179.3 460.67 C 214.43 420.08 250.14 379.24 282.31 342.18 M 184.29 461.03 C 206.24 436.5 228.05 409.19 282.04 348.58 M 184.29 461.03 C 212.18 429.32 238.54 397.9 282.04 348.58 M 189.28 461.39 C 211.04 438.13 231 410.87 282.44 354.22 M 189.28 461.39 C 224.47 422.74 258.65 384.09 282.44 354.22 M 194.92 461 C 219.16 433 245.75 404.04 282.18 360.62 M 194.92 461 C 228.33 425.25 260.63 388.57 282.18 360.62 M 199.91 461.36 C 227.2 430.09 252.82 401.85 281.92 367.02 M 199.91 461.36 C 225.54 432.16 250.46 403.26 281.92 367.02 M 205.55 460.96 C 228.19 434.08 252 406.73 282.31 372.66 M 205.55 460.96 C 233.95 428.94 262.98 395.02 282.31 372.66 M 210.54 461.32 C 233.79 432.3 260.82 408.18 282.05 379.06 M 210.54 461.32 C 237.15 429.9 266.26 397.97 282.05 379.06 M 216.18 460.93 C 230.97 444.71 242.73 429.87 282.44 384.7 M 216.18 460.93 C 241.53 431.57 265.9 402.68 282.44 384.7 M 221.17 461.29 C 241.41 436.73 262.19 413.38 282.18 391.1 M 221.17 461.29 C 236.67 443.51 252.37 425.94 282.18 391.1 M 226.81 460.9 C 246.96 439.71 265.51 417.69 281.92 397.5 M 226.81 460.9 C 243.11 441.48 260.42 421.08 281.92 397.5 M 231.8 461.26 C 248.02 440.36 264.55 422.06 282.32 403.14 M 231.8 461.26 C 249.6 441.37 265.85 421.07 282.32 403.14 M 237.44 460.86 C 250.78 447.57 263.1 432.13 282.05 409.54 M 237.44 460.86 C 253.89 442.03 272.98 421.74 282.05 409.54 M 242.43 461.22 C 257.04 445.88 266.78 430.68 282.45 415.18 M 242.43 461.22 C 256.9 444.32 271.32 426.83 282.45 415.18 M 248.07 460.83 C 262.91 445.11 273.76 430.46 282.19 421.58 M 248.07 460.83 C 256.19 451.59 264.45 440.4 282.19 421.58 M 253.06 461.19 C 264.96 446.69 276.88 433.88 281.93 427.98 M 253.06 461.19 C 263.52 449.14 274.15 436.3 281.93 427.98 M 258.7 460.79 C 268.91 449.72 278.46 441.59 282.32 433.62 M 258.7 460.79 C 265.9 452.88 270.9 446.7 282.32 433.62 M 263.69 461.15 C 269.33 454.29 273.91 448.07 282.06 440.02 M 263.69 461.15 C 269.35 454.46 273.67 448.13 282.06 440.02 M 269.33 460.76 C 274.69 457.87 277.59 452.34 282.45 445.66 M 269.33 460.76 C 272.57 458.32 274.73 454.74 282.45 445.66 M 274.32 461.12 C 276.55 457.44 279.67 454.22 282.19 452.06 M 274.32 461.12 C 276.09 459.19 277.88 457.53 282.19 452.06" fill="none" stroke="#dae8fc" stroke-width="0.5" stroke-linejoin="round" stroke-linecap="round" stroke-miterlimit="10" pointer-events="none"/><g fill="#7EA6E0" font-family="Helvetica" font-weight="bold" pointer-events="none" text-anchor="middle" font-size="12px" transform="rotate(-90,47,260)"><text x="46.5" y="270.5">Creator</text></g><path d="M 240 120 L 240 98 Q 240 80 222 80 L 98 80 Q 80 80 80 98 L 80 120" fill="#dae8fc" stroke="#6c8ebf" stroke-miterlimit="10" pointer-events="none"/><path d="M 80 120 L 80 162 Q 80 180 98 180 L 222 180 Q 240 180 240 162 L 240 120" fill="none" stroke="#6c8ebf" stroke-miterlimit="10" pointer-events="none"/><path d="M 80 120 L 240 120" fill="none" stroke="#6c8ebf" stroke-miterlimit="10" pointer-events="none"/><g fill="rgb(0, 0, 0)" font-family="Helvetica" font-style="italic" pointer-events="none" text-anchor="middle" font-size="12px"><text x="159.5" y="97.5">&lt;&lt; Interface &gt;&gt;</text><text x="159.5" y="111.5">AbstractFactory</text></g><g fill="rgb(0, 0, 0)" font-family="Helvetica" pointer-events="none" clip-path="url(#mx-clip-84-125-152-26-0)" font-size="12px"><text x="85.5" y="137.5">CreateProductA()</text></g><g fill="rgb(0, 0, 0)" font-family="Helvetica" pointer-events="none" clip-path="url(#mx-clip-84-151-152-26-0)" font-size="12px"><text x="85.5" y="163.5">CreateProductB()</text></g><path d="M 240 261 L 240 260.5 Q 240 260 250 260 L 280 260 Q 290 260 290 270 L 290 280 Q 290 290 300 290 L 311.88 290" fill="none" stroke="#000000" stroke-miterlimit="10" pointer-events="none"/><path d="M 318.88 290 L 311.88 293.5 L 311.88 286.5 Z" fill="#000000" stroke="#000000" stroke-miterlimit="10" pointer-events="none"/><path d="M 240 279.99 L 270 280 Q 280 280 280 290 L 280 390 Q 280 400 290 400 L 460 400 Q 470 400 470 390 L 470 300 Q 470 290 480 290 L 511.88 290" fill="none" stroke="#000000" stroke-miterlimit="10" pointer-events="none"/><path d="M 518.88 290 L 511.88 293.5 L 511.88 286.5 Z" fill="#000000" stroke="#000000" stroke-miterlimit="10" pointer-events="none"/><path d="M 240 246 L 240 231.7 Q 240 220 228.3 220 L 131.7 220 Q 120 220 120 231.7 L 120 246" fill="#dae8fc" stroke="#6c8ebf" stroke-miterlimit="10" pointer-events="none"/><path d="M 120 246 L 120 294.3 Q 120 306 131.7 306 L 228.3 306 Q 240 306 240 294.3 L 240 246" fill="none" stroke="#6c8ebf" stroke-miterlimit="10" pointer-events="none"/><path d="M 120 246 L 240 246" fill="none" stroke="#6c8ebf" stroke-miterlimit="10" pointer-events="none"/><g fill="rgb(0, 0, 0)" font-family="Helvetica" pointer-events="none" text-anchor="middle" font-size="12px"><text x="179.5" y="237.5">AbstractFactory1</text></g><g fill="rgb(0, 0, 0)" font-family="Helvetica" pointer-events="none" clip-path="url(#mx-clip-124-246-112-30-0)" font-size="12px"><text x="125.5" y="265.5">CreateProductA()</text></g><g fill="rgb(0, 0, 0)" font-family="Helvetica" pointer-events="none" clip-path="url(#mx-clip-124-276-112-30-0)" font-size="12px"><text x="125.5" y="295.5">CreateProductB()</text></g><path d="M 120 260 L 100 260 Q 90 260 90 250 L 90 188.12" fill="none" stroke="rgb(0, 0, 0)" stroke-miterlimit="10" stroke-dasharray="3 3" pointer-events="none"/><path d="M 90 181.12 L 93.5 188.12 L 86.5 188.12 Z" fill="none" stroke="rgb(0, 0, 0)" stroke-miterlimit="10" pointer-events="none"/><path d="M 400 296 L 400 281.7 Q 400 270 388.3 270 L 331.7 270 Q 320 270 320 281.7 L 320 296" fill="#fff2cc" stroke="#d6b656" stroke-miterlimit="10" pointer-events="none"/><path d="M 320 296 L 320 298.3 Q 320 310 331.7 310 L 388.3 310 Q 400 310 400 298.3 L 400 296" fill="none" stroke="#d6b656" stroke-miterlimit="10" pointer-events="none"/><path d="M 320 296 L 400 296" fill="none" stroke="#d6b656" stroke-miterlimit="10" pointer-events="none"/><g fill="rgb(0, 0, 0)" font-family="Helvetica" pointer-events="none" text-anchor="middle" font-size="12px"><text x="359.5" y="287.5">ProductA1</text></g><path d="M 400 290 L 420 290 Q 430 290 430 280 L 430 238.12" fill="none" stroke="rgb(0, 0, 0)" stroke-miterlimit="10" stroke-dasharray="3 3" pointer-events="none"/><path d="M 430 231.12 L 433.5 238.12 L 426.5 238.12 Z" fill="none" stroke="rgb(0, 0, 0)" stroke-miterlimit="10" pointer-events="none"/><path d="M 440 220 L 440 190 Q 440 180 430 180 L 330 180 Q 320 180 320 190 L 320 220" fill="#fff2cc" stroke="#d6b656" stroke-miterlimit="10" pointer-events="none"/><path d="M 320 220 L 320 220 Q 320 230 330 230 L 430 230 Q 440 230 440 220 L 440 220" fill="none" stroke="#d6b656" stroke-miterlimit="10" pointer-events="none"/><path d="M 320 220 L 440 220" fill="none" stroke="#d6b656" stroke-miterlimit="10" pointer-events="none"/><g fill="rgb(0, 0, 0)" font-family="Helvetica" pointer-events="none" text-anchor="middle" font-size="12px"><text x="379.5" y="197.5">&lt;&lt; Interface &gt;&gt;</text><text x="379.5" y="211.5">AbstractProductA</text></g><path d="M 120 383 L 90 383 Q 80 383 80 373 L 80 188.12" fill="none" stroke="rgb(0, 0, 0)" stroke-miterlimit="10" stroke-dasharray="3 3" pointer-events="none"/><path d="M 80 181.12 L 83.5 188.12 L 76.5 188.12 Z" fill="none" stroke="rgb(0, 0, 0)" stroke-miterlimit="10" pointer-events="none"/><path d="M 240 381 L 250.01 380.5 Q 260 380 260 375 L 260 372.5 Q 260 370 268.5 370 L 277 370 M 277 373 L 277 367 M 283 367 L 283 373 M 283 370 L 283 370 L 311.88 370" fill="none" stroke="#000000" stroke-miterlimit="10" pointer-events="none"/><path d="M 318.88 370 L 311.88 373.5 L 311.88 366.5 Z" fill="#000000" stroke="#000000" stroke-miterlimit="10" pointer-events="none"/><path d="M 240 400 L 250 400 Q 260 400 260 410 L 260 415 Q 260 420 270 420 L 490 420 Q 500 420 500 410 L 500 380 Q 500 370 505.94 370 L 511.88 370" fill="none" stroke="#000000" stroke-miterlimit="10" pointer-events="none"/><path d="M 518.88 370 L 511.88 373.5 L 511.88 366.5 Z" fill="#000000" stroke="#000000" stroke-miterlimit="10" pointer-events="none"/><path d="M 240 366 L 240 351.7 Q 240 340 228.3 340 L 131.7 340 Q 120 340 120 351.7 L 120 366" fill="#dae8fc" stroke="#6c8ebf" stroke-miterlimit="10" pointer-events="none"/><path d="M 120 366 L 120 414.3 Q 120 426 131.7 426 L 228.3 426 Q 240 426 240 414.3 L 240 366" fill="none" stroke="#6c8ebf" stroke-miterlimit="10" pointer-events="none"/><path d="M 120 366 L 240 366" fill="none" stroke="#6c8ebf" stroke-miterlimit="10" pointer-events="none"/><g fill="rgb(0, 0, 0)" font-family="Helvetica" pointer-events="none" text-anchor="middle" font-size="12px"><text x="179.5" y="357.5">AbstractFactory2</text></g><g fill="rgb(0, 0, 0)" font-family="Helvetica" pointer-events="none" clip-path="url(#mx-clip-124-366-112-30-0)" font-size="12px"><text x="125.5" y="385.5">CreateProductA()</text></g><g fill="rgb(0, 0, 0)" font-family="Helvetica" pointer-events="none" clip-path="url(#mx-clip-124-396-112-30-0)" font-size="12px"><text x="125.5" y="415.5">CreateProductB()</text></g><path d="M 470 120 L 470 130 Q 470 140 460 140 L 390 140 Q 380 140 380 150 L 380 171.88" fill="none" stroke="rgb(0, 0, 0)" stroke-miterlimit="10" pointer-events="none"/><path d="M 380 178.88 L 376.5 171.88 L 383.5 171.88 Z" fill="rgb(0, 0, 0)" stroke="rgb(0, 0, 0)" stroke-miterlimit="10" pointer-events="none"/><path d="M 490 120 L 490 130 Q 490 140 500 140 L 570 140 Q 580 140 580 150 L 580 171.88" fill="none" stroke="rgb(0, 0, 0)" stroke-miterlimit="10" pointer-events="none"/><path d="M 580 178.88 L 576.5 171.88 L 583.5 171.88 Z" fill="rgb(0, 0, 0)" stroke="rgb(0, 0, 0)" stroke-miterlimit="10" pointer-events="none"/><path d="M 420 100 L 340 100 Q 330 100 330 110 L 330 120 Q 330 130 320 130 L 248.12 130" fill="none" stroke="rgb(0, 0, 0)" stroke-miterlimit="10" pointer-events="none"/><path d="M 241.12 130 L 248.12 126.5 L 248.12 133.5 Z" fill="rgb(0, 0, 0)" stroke="rgb(0, 0, 0)" stroke-miterlimit="10" pointer-events="none"/><path d="M 540 106 L 540 91.7 Q 540 80 528.3 80 L 431.7 80 Q 420 80 420 91.7 L 420 106" fill="#d5e8d4" stroke="#82b366" stroke-miterlimit="10" pointer-events="none"/><path d="M 420 106 L 420 108.3 Q 420 120 431.7 120 L 528.3 120 Q 540 120 540 108.3 L 540 106" fill="none" stroke="#82b366" stroke-miterlimit="10" pointer-events="none"/><path d="M 420 106 L 540 106" fill="none" stroke="#82b366" stroke-miterlimit="10" pointer-events="none"/><g fill="rgb(0, 0, 0)" font-family="Helvetica" pointer-events="none" text-anchor="middle" font-size="12px"><text x="479.5" y="97.5">Client</text></g><path d="M 400 370 L 430 370 Q 440 370 440 360 L 440 238.12" fill="none" stroke="rgb(0, 0, 0)" stroke-miterlimit="10" stroke-dasharray="3 3" pointer-events="none"/><path d="M 440 231.12 L 443.5 238.12 L 436.5 238.12 Z" fill="none" stroke="rgb(0, 0, 0)" stroke-miterlimit="10" pointer-events="none"/><path d="M 400 376 L 400 361.7 Q 400 350 388.3 350 L 331.7 350 Q 320 350 320 361.7 L 320 376" fill="#fff2cc" stroke="#d6b656" stroke-miterlimit="10" pointer-events="none"/><path d="M 320 376 L 320 378.3 Q 320 390 331.7 390 L 388.3 390 Q 400 390 400 378.3 L 400 376" fill="none" stroke="#d6b656" stroke-miterlimit="10" pointer-events="none"/><path d="M 320 376 L 400 376" fill="none" stroke="#d6b656" stroke-miterlimit="10" pointer-events="none"/><g fill="rgb(0, 0, 0)" font-family="Helvetica" pointer-events="none" text-anchor="middle" font-size="12px"><text x="359.5" y="367.5">ProductA2</text></g><path d="M 600 296 L 600 281.7 Q 600 270 588.3 270 L 531.7 270 Q 520 270 520 281.7 L 520 296" fill="#fff2cc" stroke="#d6b656" stroke-miterlimit="10" pointer-events="none"/><path d="M 520 296 L 520 298.3 Q 520 310 531.7 310 L 588.3 310 Q 600 310 600 298.3 L 600 296" fill="none" stroke="#d6b656" stroke-miterlimit="10" pointer-events="none"/><path d="M 520 296 L 600 296" fill="none" stroke="#d6b656" stroke-miterlimit="10" pointer-events="none"/><g fill="rgb(0, 0, 0)" font-family="Helvetica" pointer-events="none" text-anchor="middle" font-size="12px"><text x="559.5" y="287.5">ProductB1</text></g><path d="M 600 290 L 620 290 Q 630 290 630 280 L 630 238.12" fill="none" stroke="rgb(0, 0, 0)" stroke-miterlimit="10" stroke-dasharray="3 3" pointer-events="none"/><path d="M 630 231.12 L 633.5 238.12 L 626.5 238.12 Z" fill="none" stroke="rgb(0, 0, 0)" stroke-miterlimit="10" pointer-events="none"/><path d="M 640 220 L 640 190 Q 640 180 630 180 L 530 180 Q 520 180 520 190 L 520 220" fill="#fff2cc" stroke="#d6b656" stroke-miterlimit="10" pointer-events="none"/><path d="M 520 220 L 520 220 Q 520 230 530 230 L 630 230 Q 640 230 640 220 L 640 220" fill="none" stroke="#d6b656" stroke-miterlimit="10" pointer-events="none"/><path d="M 520 220 L 640 220" fill="none" stroke="#d6b656" stroke-miterlimit="10" pointer-events="none"/><g fill="rgb(0, 0, 0)" font-family="Helvetica" pointer-events="none" text-anchor="middle" font-size="12px"><text x="579.5" y="197.5">&lt;&lt; Interface &gt;&gt;</text><text x="579.5" y="211.5">AbstractProductB</text></g><path d="M 600 370 L 630 370 Q 640 370 640 360 L 640 238.12" fill="none" stroke="rgb(0, 0, 0)" stroke-miterlimit="10" stroke-dasharray="3 3" pointer-events="none"/><path d="M 640 231.12 L 643.5 238.12 L 636.5 238.12 Z" fill="none" stroke="rgb(0, 0, 0)" stroke-miterlimit="10" pointer-events="none"/><path d="M 600 376 L 600 361.7 Q 600 350 588.3 350 L 531.7 350 Q 520 350 520 361.7 L 520 376" fill="#fff2cc" stroke="#d6b656" stroke-miterlimit="10" pointer-events="none"/><path d="M 520 376 L 520 378.3 Q 520 390 531.7 390 L 588.3 390 Q 600 390 600 378.3 L 600 376" fill="none" stroke="#d6b656" stroke-miterlimit="10" pointer-events="none"/><path d="M 520 376 L 600 376" fill="none" stroke="#d6b656" stroke-miterlimit="10" pointer-events="none"/><g fill="rgb(0, 0, 0)" font-family="Helvetica" pointer-events="none" text-anchor="middle" font-size="12px"><text x="559.5" y="367.5">ProductB2</text></g></g></svg>